<svg xmlns="http://www.w3.org/2000/svg" viewBox="0 0 1070 827"><defs><style>.cls-1{fill:#429bf5;}.cls-2{fill:#4342f5;}.cls-3{fill:#fff;}.cls-4{fill:none;stroke:#42f5f5;stroke-miterlimit:10;stroke-width:12px;}</style></defs><title>Favicon</title><g id="blue_crab"><path class="cls-1" d="M977.08,403.3c5.5,17,22.36,8.86,26.66,6.2s3.44-8,9.46-3.54c8.43,6.2,31,0,31,0s12.9,3.54,21.5-4.43,15.48-5.32,18.06-3.55,11.18,8,21.5-1.77,17.2-10.64,21.5-10.64,8.6,8.86,5.16,16-12.9,15.06-12.9,15.06c7.74,7.09,18.92,3.55,18.92,3.55s13.76-13.3,15.48-9.75c17,35.1,35.26,24.82,35.26,24.82s5.16-6.21,6,0c5.9,42.56,32.68-.89,31.82,12.4-1.38,21.3,10.32,23.05,10.32,23.05,7.52,2.58,18.92-7.09,18.06-3.55-3.24,13.35,4.3,18.62,11.18,23.93s23.22-8.86,20.64-2.66c-8.25,19.84,12,27.48,12.9,28.37,6,6.2,18.92-3.55,18.92-3.55s-4.3,6.21-1.72,17.73,16.34,8.86,16.34,8.86,1.72,5.32,6,6.2,14.62-8,14.62-6.2-.86,4.43-5.16,13.3,6.88,23.93,17.2,26.58,12-2.65,18.06-3.54,5.16,4.43,5.16,4.43-13.76,16-10.32,16,5.16,8,3.44,11.53,0,8.86,17.2,12.41S1512,647.92,1512,647.92c-237.36,10.64-309.6,39-332.82,59.38-98.91,86.84-204,66.72-204,66.72" transform="translate(-442 -70)"/><path class="cls-1" d="M978.78,774.35s-105,20.12-204-66.72C751.6,687.25,679.36,658.89,442,648.25c0,0,95.46-23.93,112.66-27.47s18.92-8.87,17.2-12.41,0-11.53,3.44-11.53-10.32-16-10.32-16-.86-5.32,5.16-4.43,7.74,6.2,18.06,3.54,21.5-17.72,17.2-26.59-5.16-11.52-5.16-13.29,10.32,7.09,14.62,6.2,6-6.2,6-6.2,13.76,2.66,16.34-8.86-1.72-17.73-1.72-17.73,12.9,9.75,18.92,3.55c.86-.89,21.15-8.53,12.9-28.37-2.58-6.2,13.76,8,20.64,2.66s14.42-10.58,11.18-23.93c-.86-3.54,10.54,6.13,18.06,3.55,0,0,11.7-1.75,10.32-23.05-.86-13.29,25.92,30.16,31.82-12.41.86-6.2,6,0,6,0s18.23,10.29,35.26-24.81c1.72-3.55,15.48,9.75,15.48,9.75S827.28,424,835,416.92c0,0-9.46-8-12.9-15.07s.86-16,5.16-16,11.18.89,21.5,10.64,18.92,3.54,21.5,1.77,9.46-4.43,18.06,3.54,21.5,4.44,21.5,4.44,22.53,6.2,31,0c6-4.44,5.16.88,9.46,3.54s21.16,10.8,26.66-6.2" transform="translate(-442 -70)"/><path class="cls-1" d="M975.7,774.11" transform="translate(-442 -70)"/><path class="cls-1" d="M1285,495.47s115.24-39.88,137.6-114.33c0,0,7.74-10.57,7.74-16.84,0-.89,36.27-20.16-1.72-78.88-1.72-2.66-18-5.93-26.66-32.8l-6.88-1.77s-1.11-14.7-6.88-26.59c-.86-1.77-6.88,17.73-13.76,11.52,0,0-24.08-54.95-146.2-99.26,0,0-109.22-65.59-156.52-66.48s-51.6,12.41-51.6,12.41l-.86,4.43v2.66a50.76,50.76,0,0,1,18.06-6.2c11.18-1.78,50.9-7.42,120,55.39,7.31,6.65-21.07,3.1-21.07,3.1s-114.38-21.27-117-31-3.44,8,0,9.75c0,0,19.78,16,43,23.05s50.74,23,55.9,29.25,35.24,30.32,64.5,33.68c7.74.88,19.78,8.86,22.36,13.29,0,0,137.6,117,156.52,118.77,0,0-10.32-1.78-35.26,8,0,0-3.44-1.77-1.72-4.43S1313.16,353,1305.6,351c-3.44-.89,0-24.82.86-26.59S1284.1,351.79,1284.1,367c0,5.32-30.1,24.82-31.82,21.27s-6.88,1.77-8.6-22.16c0,0-9.46,6.21-6,37.23,0,0-15.48,1.77-19.78,15.07a21.87,21.87,0,0,1-9.46-15.07c-1.72-10.64-4.3,20.38-1.72,23s-11.18,8-11.18,8l-37.84,31.91,86,57.61Z" transform="translate(-442 -70)"/><path class="cls-1" d="M657.17,495.8s-115.24-39.88-137.6-114.33c0,0-7.74-10.58-7.74-16.84,0-.89-36.27-20.16,1.72-78.89,1.72-2.66,18-5.92,26.66-32.79l6.88-1.77s1.11-14.7,6.88-26.59c.86-1.78,6.88,17.72,13.76,11.52,0,0,24.08-55,146.2-99.27,0,0,109.22-65.59,156.52-66.47s51.6,12.41,51.6,12.41l.86,4.43v2.66a50.87,50.87,0,0,0-18.06-6.21c-11.18-1.77-50.9-7.41-120,55.4-7.31,6.65,21.07,3.1,21.07,3.1s114.38-21.27,117-31,3.43,8,0,9.75c0,0-19.78,16-43,23s-50.74,23-55.9,29.25-35.24,30.33-64.5,33.68c-7.74.89-19.78,8.86-22.36,13.3,0,0-137.6,117-156.52,118.76,0,0,10.32-1.77,35.26,8,0,0,3.44-1.77,1.72-4.43s11.36,10.81,18.92,8.86c3.44-.89,0-24.82-.86-26.59S658,352.11,658,367.28c0,5.32,30.1,24.82,31.82,21.28s6.88,1.77,8.6-22.16c0,0,9.46,6.2,6,37.22,0,0,15.48,1.78,19.78,15.07a21.83,21.83,0,0,0,9.46-15.07c1.72-10.63,4.3,20.39,1.72,23.05s11.18,8,11.18,8l37.84,31.91-86,57.61Z" transform="translate(-442 -70)"/><path class="cls-1" d="M673.57,690.32a199.21,199.21,0,0,0-81.67,8.54c-1.77.56-3.86,1.58-3.93,3.49a4.52,4.52,0,0,0,1.7,3.16c8.39,8.25,20.46,11.12,32,12.06a126.67,126.67,0,0,0,40.18-3.19c5.52-1.35,11.54-3.56,14.06-8.8,3-6.17-1.55-14.7-8.19-15.48" transform="translate(-442 -70)"/><path class="cls-1" d="M678.66,726.87A154.48,154.48,0,0,0,631.9,752c-2.5,2-5.06,4.18-6,7.25-1.63,5.13,2,10.8,6.75,13s10.26,1.85,15.44,1.09a125.84,125.84,0,0,0,57.12-23.91c2.22-1.67,4.53-3.64,5.12-6.41,1.15-5.46-4.86-9.54-10.08-11.05a55.92,55.92,0,0,0-33,.65" transform="translate(-442 -70)"/><path class="cls-1" d="M706.45,780.76A249,249,0,0,0,627.53,829c-13.9,12.58-27,28-29.71,46.85-.79,5.58-.38,11.93,3.53,15.89,2.68,2.71,6.52,3.78,10.22,4.42,28.65,4.89,59.45-13.08,70.12-40.92,6-15.6,6.17-33.43,14.39-47.9a46.75,46.75,0,0,1,15.22-16.12c3.08-2,6.48-3.67,8.75-6.59s2.93-7.65.27-10.21l-17.14,5.78" transform="translate(-442 -70)"/><path class="cls-1" d="M1279.76,690.06a199.45,199.45,0,0,1,81.68,8.54c1.76.57,3.85,1.58,3.93,3.49a4.49,4.49,0,0,1-1.71,3.16c-8.38,8.25-20.45,11.12-32,12.06a126.38,126.38,0,0,1-40.18-3.19c-5.52-1.35-11.55-3.56-14.06-8.8-3-6.17,1.55-14.7,8.18-15.48" transform="translate(-442 -70)"/><path class="cls-1" d="M1274.68,726.61a154.65,154.65,0,0,1,46.75,25.16c2.5,2,5.07,4.18,6,7.26,1.63,5.12-2,10.79-6.75,13s-10.26,1.85-15.44,1.09a125.84,125.84,0,0,1-57.12-23.91c-2.22-1.67-4.53-3.64-5.12-6.4-1.16-5.47,4.85-9.55,10.08-11.06a55.89,55.89,0,0,1,32.94.65" transform="translate(-442 -70)"/><path class="cls-1" d="M1246.89,780.51a248.8,248.8,0,0,1,78.92,48.27c13.89,12.58,27,28,29.71,46.85.79,5.59.37,11.93-3.53,15.89-2.68,2.71-6.52,3.78-10.23,4.42-28.65,4.9-59.45-13.07-70.11-40.91-6-15.6-6.17-33.44-14.4-47.91A46.63,46.63,0,0,0,1242,791c-3.08-2-6.48-3.66-8.75-6.59s-2.93-7.65-.28-10.21l17.14,5.79" transform="translate(-442 -70)"/></g><g id="outline_real"><path class="cls-2" d="M810.27,444h341.44s37.52,5.6,47.84,48.13,35.64,220.53,35.64,220.53l-14.07,66,8.44,10.07v50.38H1193s5.63,44.77-1.88,47-91,0-91,0-11.26-20.15-1.88-47H859.05s5.63,36.94-3.75,45.89-90,1.12-90,1.12-4.69-19,1.87-44.77l-41.27-1.12-.94-51.5,11.26-10.07s-15-60.45-14.07-70.52,33.77-222.76,41.27-232.84S780.25,447.36,810.27,444Z" transform="translate(-442 -70)"/><path class="cls-2" d="M1236.2,590.13l6.14,97.53s14.73,12,21.79-8.91S1265.16,570.91,1236.2,590.13Z" transform="translate(-442 -70)"/><rect class="cls-3" x="417.52" y="395.5" width="239.19" height="57.5"/><path class="cls-3" d="M767.12,553.5s84.42-7,101.31-8h94.74v122H746.49Z" transform="translate(-442 -70)"/><path class="cls-3" d="M1186.41,553.5s-84.42-7-101.3-8H990.37v122h216.68Z" transform="translate(-442 -70)"/><ellipse class="cls-3" cx="348.1" cy="683" rx="20.17" ry="21.5"/><ellipse class="cls-3" cx="385.62" cy="683" rx="20.17" ry="21.5"/><path class="cls-2" d="M1356,420.5" transform="translate(-442 -70)"/><ellipse class="cls-3" cx="697.51" cy="682.5" rx="20.17" ry="21.5"/><ellipse class="cls-3" cx="735.03" cy="682.5" rx="20.17" ry="21.5"/><path class="cls-2" d="M721.62,591.51,715.48,689s-14.73,12-21.79-8.91S692.66,572.29,721.62,591.51Z" transform="translate(-442 -70)"/><line class="cls-4" x1="320.5" y1="738.5" x2="745.5" y2="738.5"/></g></svg>